<svg xmlns="http://www.w3.org/2000/svg" xmlns:xlink="http://www.w3.org/1999/xlink" width="500" zoomAndPan="magnify" viewBox="0 0 375 374.999991" height="500" preserveAspectRatio="xMidYMid meet" version="1.0"><defs><clipPath id="id1"><path d="M 112.5 112.6875 L 262.5 112.6875 L 262.5 262.6875 L 112.5 262.6875 Z M 112.5 112.6875 " clip-rule="nonzero"/></clipPath></defs><g clip-path="url(#id1)"><path fill="rgb(0%, 0%, 0%)" d="M 259.335938 212.996094 C 257.765625 212.996094 256.492188 211.71875 256.492188 210.144531 L 256.492188 122.707031 L 208.226562 171.089844 C 207.113281 172.203125 205.316406 172.203125 204.203125 171.089844 C 203.09375 169.976562 203.09375 168.171875 204.203125 167.058594 L 257.324219 113.808594 C 258.136719 112.992188 259.359375 112.746094 260.421875 113.1875 C 261.484375 113.628906 262.179688 114.667969 262.179688 115.824219 L 262.179688 210.144531 C 262.179688 211.71875 260.90625 212.996094 259.335938 212.996094 Z M 115.679688 262.6875 C 114.109375 262.6875 112.835938 261.410156 112.835938 259.835938 L 112.835938 160.457031 C 112.835938 159.304688 113.53125 158.261719 114.59375 157.824219 C 115.65625 157.378906 116.878906 157.625 117.691406 158.4375 L 167.257812 208.132812 C 168.367188 209.242188 168.367188 211.050781 167.257812 212.160156 C 166.148438 213.277344 164.347656 213.277344 163.234375 212.160156 L 118.523438 167.335938 L 118.523438 259.835938 C 118.523438 261.410156 117.25 262.6875 115.679688 262.6875 Z M 259.335938 262.6875 C 258.605469 262.6875 257.878906 262.410156 257.324219 261.851562 L 113.667969 117.835938 C 112.558594 116.726562 112.558594 114.921875 113.667969 113.808594 C 114.78125 112.695312 116.582031 112.695312 117.691406 113.808594 L 261.34375 257.820312 C 262.457031 258.933594 262.457031 260.738281 261.34375 261.851562 C 260.789062 262.410156 260.0625 262.6875 259.335938 262.6875 " fill-opacity="1" fill-rule="nonzero"/></g></svg>